<svg xmlns="http://www.w3.org/2000/svg" width="8.013" height="15.987">
    <path fill="#1E1F26" fill-rule="evenodd" d="M2.987 2.825c.811 0 1.47-.634 1.47-1.414 0-.779-.659-1.413-1.47-1.413-.809 0-1.469.634-1.469 1.413 0 .78.66 1.414 1.469 1.414zM5.98 7.044L4.79 3.495a.533.533 0 0 0-.484-.339H1.668a.533.533 0 0 0-.483.339l-1.19 3.549a.313.313 0 0 0 .04.292c.061.08.162.126.277.126h.305c.207 0 .42-.148.484-.338l.338-1.011v5.236c0 .36.305.652.678.652h.048a.666.666 0 0 0 .678-.652V7.935h.289v3.414c0 .36.304.652.678.652h.047a.666.666 0 0 0 .678-.652V6.112l.34 1.012a.53.53 0 0 0 .483.338h.305a.342.342 0 0 0 .277-.126.31.31 0 0 0 .04-.292z"/>
</svg>
