<svg xmlns="http://www.w3.org/2000/svg" width="9.335" height="24">
    <path fill="#1E1F26" fill-rule="evenodd" d="M6.489 4.692c-.34-.302-.814-.453-1.419-.453H1.968c-.581 0-1.054.137-1.419.411C.183 4.925 0 5.35 0 5.926v4.656c0 .247.101.425.302.535.202.11.398.11.587 0 .189-.11.284-.288.284-.535V6.338h.378v10.797c0 .577.259.865.776.865s.776-.288.776-.865v-5.323h.794v5.323c0 .577.259.865.776.865s.775-.288.775-.865V6.338h.379v3.956c0 .302.094.521.284.658.189.137.384.137.586 0 .202-.137.303-.356.303-.658V5.967c0-.548-.171-.973-.511-1.275zM3.462 3.498c.441 0 .82-.171 1.135-.514a1.79 1.79 0 0 0 .473-1.255c0-.467-.158-.872-.473-1.215C4.282.171 3.903 0 3.462 0c-.441 0-.82.171-1.135.514a1.763 1.763 0 0 0-.473 1.235c0 .48.158.892.473 1.235.315.343.694.514 1.135.514z"/>
</svg>
