<svg xmlns="http://www.w3.org/2000/svg" width="9.335" height="24">
    <path fill="#FFF" fill-rule="evenodd" d="M6.489 4.691c-.34-.301-.813-.452-1.419-.452H1.968c-.581 0-1.054.137-1.419.411C.183 4.925 0 5.35 0 5.926v4.656c0 .247.101.425.303.535a.566.566 0 0 0 .586 0c.189-.11.284-.288.284-.535V6.338h.378v10.798c0 .575.259.864.776.864s.776-.289.776-.864v-5.324h.794v5.324c0 .575.259.864.776.864s.775-.289.775-.864V6.338h.379v3.956c0 .301.094.521.284.658.189.137.384.137.586 0 .202-.137.303-.357.303-.658V5.967c0-.548-.17-.974-.511-1.276zM3.462 3.498c.441 0 .82-.171 1.135-.515.315-.342.473-.761.473-1.254 0-.467-.158-.872-.473-1.215C4.282.171 3.903 0 3.462 0c-.442 0-.82.171-1.135.514a1.763 1.763 0 0 0-.473 1.235c0 .48.158.892.473 1.234.315.344.693.515 1.135.515z"/>
</svg>
